/* XPM */
static char * XFACE[] = {
"41 33 2 1",
". c #ffffff",
"x c #00ff00",
".................................xxxxxxxx",
"................................xxxxxxxx.",
"...............................xxxxxxxx..",
"..............................xxxxxxxx...",
".............................xxxxxxxx....",
"............................xxxxxxxx.....",
"...........................xxxxxxxx......",
"..........................xxxxxxxx.......",
".........................xxxxxxxx........",
"........................xxxxxxxx.........",
".......................xxxxxxxx..........",
"......................xxxxxxxx...........",
".....................xxxxxxxx............",
"....................xxxxxxxx.............",
"...................xxxxxxxx..............",
"..................xxxxxxxx...............",
".................xxxxxxxx................",
"................xxxxxxxx.................",
"................xxxxxxxxxxxxxxxxxxxxxxxxx",
"................xxxxxxxxxxxxxxxxxxxxxxxxx",
"................xxxxxxxxxxxxxxxxxxxxxxxxx",
"................xxxxxxxxxxxxxxxxxxxxxxxxx",
"................xxxxxxxxxxxxxxxxxxxxxxxxx",
"................xxxxxxxxxxxxxxxxxxxxxxxxx",
"................xxxxxxxxxxxxxxxxxxxxxxxxx",
".................................xxxxxxxx",
".................................xxxxxxxx",
".................................xxxxxxxx",
".................................xxxxxxxx",
".................................xxxxxxxx",
".................................xxxxxxxx",
".................................xxxxxxxx",
".................................xxxxxxxx"