/* XPM */
static char * XFACE[] = {
"48 4 2 1",
"a c #ffffff",
"b c #000000",
"abaabaababaaabaabababaabaabaababaabaaababaabaaab",
"abaabaababaaabaabababaabaabaababaabaaababaabaaab",
"abaabaababaaabaabababaabaabaababaabaaababaabaaab",
"abaabaababaaabaabababaabaabaababaabaaababaabaaab"
};